# xmcd
#
# Track frame offsets:
#	150
#	27197
#	38037
#
# Disc length: 793 seconds
#
# Revision: 1
# Processed by: cddbd v1.5PL3 Copyright (c) Steve Scherf et al.
# Submitted via: CDex 1.50Beta5
#
DISCID=19031703
DTITLE=Olivia - Color of your Spoon
DYEAR=1900
DGENRE=Pop
TTITLE0=Color of your Spoon
TTITLE1=Grapefruit Tea
TTITLE2=Lettuce Garden
EXTD=
EXTT0=
EXTT1=
EXTT2=
PLAYORDER=
